<?xml version="1.0" standalone="no"?>
<!DOCTYPE svg PUBLIC "-//W3C//DTD SVG 20010904//EN"
 "http://www.w3.org/TR/2001/REC-SVG-20010904/DTD/svg10.dtd">
<svg version="1.0" xmlns="http://www.w3.org/2000/svg"
 width="500.000000pt" height="500.000000pt" viewBox="0 0 500.000000 500.000000"
 preserveAspectRatio="xMidYMid meet">
<metadata>
Created by potrace 1.14, written by Peter Selinger 2001-2017
</metadata>
<g transform="translate(0.000000,500.000000) scale(0.100000,-0.100000)"
fill="#000000" stroke="none">
<path d="M3455 4775 c-38 -7 -82 -18 -97 -23 -21 -9 -34 -7 -58 5 -26 13 -56
15 -164 10 -257 -10 -414 -86 -637 -307 -91 -91 -123 -129 -174 -209 -5 -8
-28 -40 -50 -71 -22 -30 -44 -62 -50 -71 -44 -74 -46 -75 -108 -88 -34 -7 -73
-19 -88 -27 -73 -37 -236 -224 -312 -356 -31 -54 -57 -153 -57 -221 0 -45 29
-123 52 -138 5 -3 -5 -21 -22 -40 -40 -43 -128 -161 -164 -220 -28 -44 -31
-46 -98 -57 -119 -21 -219 -71 -378 -190 -203 -152 -328 -307 -467 -580 -92
-181 -163 -360 -170 -429 -5 -48 -3 -54 25 -82 25 -26 35 -30 55 -22 21 8 220
41 248 41 5 0 -3 -19 -19 -42 -53 -78 -89 -162 -111 -263 -13 -55 -31 -131
-41 -170 -72 -270 -140 -741 -157 -1092 l-6 -133 1658 0 1658 0 -6 42 c-3 24
-13 111 -22 193 -24 225 -74 582 -91 646 -8 31 -14 71 -14 88 0 63 -147 313
-247 419 -18 19 -33 36 -33 38 0 12 122 1 151 -13 115 -57 210 -142 316 -285
47 -63 64 -78 92 -84 44 -9 65 15 82 94 17 84 7 353 -19 472 -11 52 -25 124
-31 160 l-11 65 66 66 c74 73 93 102 94 140 0 20 8 30 33 40 55 22 228 163
312 255 44 49 116 124 161 168 94 94 162 195 218 321 38 86 40 95 41 195 0
116 -18 183 -82 290 -71 121 -67 105 -36 157 24 41 28 61 31 143 2 52 -1 120
-8 150 -6 30 -15 100 -20 155 -8 97 -13 117 -60 235 -43 108 -179 281 -280
355 -60 44 -276 159 -350 186 -124 46 -221 71 -330 84 -134 17 -133 17 -225 0z
m-895 -416 c-6 -18 -10 -66 -10 -105 0 -59 5 -81 30 -130 24 -48 27 -61 17
-72 -19 -18 -42 11 -68 84 -26 73 -22 160 10 222 26 51 35 51 21 1z m-128
-143 c-3 -48 0 -70 13 -90 21 -32 29 -33 43 -3 9 19 11 20 11 3 1 -11 13 -39
27 -63 l26 -44 -54 -57 c-29 -31 -65 -72 -80 -89 -15 -18 -30 -33 -34 -33 -4
0 -4 30 0 68 4 37 8 78 9 91 3 40 -19 34 -39 -11 -20 -45 -26 -146 -8 -169 7
-10 3 -21 -18 -41 l-28 -27 -15 22 c-27 42 -45 97 -52 156 -5 53 -3 65 22 108
35 61 34 60 45 43 13 -21 25 -5 44 60 9 34 30 71 53 97 21 24 38 43 38 43 1 0
-1 -29 -3 -64z m59 -26 l-9 -45 -1 40 c-1 48 12 103 16 70 2 -11 -1 -40 -6
-65z m861 13 c24 -9 54 -23 67 -32 l23 -15 -39 -36 c-46 -44 -133 -144 -133
-155 0 -4 -8 -19 -19 -33 -10 -15 -26 -59 -36 -98 -14 -57 -15 -78 -6 -112 15
-53 27 -60 45 -24 31 60 133 136 249 183 95 39 102 38 121 -17 27 -81 110
-178 246 -289 102 -84 135 -107 178 -124 22 -9 38 -26 51 -55 10 -22 27 -49
37 -58 48 -43 62 -55 97 -78 35 -24 37 -28 37 -80 0 -30 7 -95 16 -144 13 -71
14 -101 6 -153 -14 -81 -57 -175 -117 -253 -44 -58 -251 -270 -347 -357 -103
-93 -65 -190 84 -218 l36 -7 -28 -26 c-71 -68 -116 -108 -131 -117 -9 -5 -41
-26 -70 -45 -92 -61 -129 -75 -196 -75 -51 0 -66 4 -87 24 -14 13 -26 37 -28
54 -6 63 -89 38 -165 -50 -26 -30 -52 -61 -56 -69 -4 -8 -13 -14 -18 -14 -6 0
-23 -8 -37 -19 -15 -10 -73 -39 -130 -65 -103 -46 -104 -46 -213 -46 -60 0
-109 2 -109 4 0 2 16 27 35 56 19 28 41 73 49 99 8 27 21 61 28 77 8 16 25 70
38 119 12 50 34 115 47 145 33 74 59 158 79 259 16 77 16 84 0 93 -10 5 -16
22 -16 42 0 21 -6 36 -15 40 -8 3 -15 17 -15 31 0 14 -4 25 -8 25 -4 0 -12 15
-17 32 -6 18 -20 38 -32 44 -12 6 -39 32 -60 57 -38 46 -73 61 -89 36 -4 -7
-11 1 -18 21 -6 18 -20 38 -30 44 -11 6 -31 24 -44 39 -16 18 -30 26 -42 22
-10 -3 -21 -1 -25 5 -3 5 -22 10 -41 10 -19 0 -34 5 -34 11 0 15 -82 4 -113
-15 -12 -8 -38 -17 -57 -21 -53 -11 -156 -72 -200 -119 -21 -22 -73 -77 -115
-121 -83 -88 -142 -169 -208 -291 -24 -43 -60 -105 -80 -137 -49 -81 -107
-222 -107 -263 0 -19 -4 -34 -9 -34 -10 0 -100 178 -151 298 -28 67 -30 78
-25 150 11 132 84 364 158 497 6 11 17 34 26 50 61 122 194 296 316 414 83 81
95 96 81 106 -14 11 -14 15 3 49 39 76 36 219 -4 186 -8 -7 -17 -34 -21 -61
-6 -47 -7 -48 -43 -51 -28 -2 -37 -8 -39 -25 -3 -17 3 -24 22 -29 22 -5 24 -9
15 -25 -5 -11 -9 -26 -7 -33 3 -13 -62 -66 -81 -66 -19 0 -34 62 -28 121 6 69
35 135 110 247 73 111 120 164 168 191 l42 23 -8 -28 c-4 -16 -8 -35 -9 -42
-1 -8 -14 -28 -28 -46 -45 -57 -58 -153 -29 -227 22 -58 107 -77 171 -38 35
22 227 211 354 349 66 72 68 74 61 40 -5 -19 -8 -96 -7 -170 0 -77 -4 -149
-11 -167 -9 -27 -8 -35 8 -53 10 -11 26 -20 35 -20 12 0 27 -24 50 -85 18 -47
39 -90 46 -96 8 -6 14 -15 14 -20 0 -5 12 -28 28 -51 87 -137 111 -148 221
-97 63 30 71 37 71 62 0 32 -21 44 -53 30 -39 -16 -62 -5 -84 40 -65 137 -157
304 -175 318 l-20 16 37 84 c43 96 122 247 140 269 7 8 19 28 27 44 15 29 15
28 28 -55 13 -84 48 -177 75 -199 8 -7 19 -29 25 -49 35 -124 96 -71 79 69
-14 118 20 277 77 368 17 27 48 28 106 5z m-872 -1419 c25 -10 51 -24 58 -31
7 -7 31 -18 52 -24 23 -7 55 -29 75 -51 20 -21 41 -38 48 -38 23 -1 65 -47 72
-81 4 -19 16 -50 26 -69 11 -19 19 -43 19 -53 0 -10 5 -27 11 -38 20 -38 -62
-235 -227 -548 -48 -91 -110 -156 -158 -165 -67 -13 -136 21 -160 77 -20 49
-5 94 117 347 50 104 118 200 141 200 6 0 20 9 29 21 23 26 14 55 -21 74 -15
8 -38 26 -51 40 -45 49 -121 71 -105 32 6 -17 -20 -84 -42 -109 -9 -9 -28 -41
-43 -70 -66 -130 -166 -280 -230 -348 -47 -49 -148 -110 -183 -110 -10 0 -32
7 -48 15 -38 20 -55 101 -32 155 8 19 25 62 37 95 23 63 45 111 87 185 158
280 198 334 318 428 36 28 78 54 93 57 14 4 32 13 38 21 7 8 17 13 23 11 6 -3
31 -13 56 -23z m2103 -141 c-71 -103 -90 -124 -193 -208 -52 -43 -108 -92
-125 -108 -47 -47 -86 -67 -132 -67 -23 0 -45 -4 -48 -10 -7 -11 -123 -14
-150 -4 -14 6 -11 12 18 39 l34 32 67 -10 c84 -12 167 -2 200 24 36 28 33 43
-6 34 -58 -12 -176 -17 -194 -7 -15 8 -13 13 15 42 30 32 34 33 104 31 41 -1
93 5 121 14 96 29 196 111 196 159 0 22 -2 22 -62 14 -33 -4 -63 -6 -65 -4
-13 12 20 46 45 46 38 0 181 28 200 40 10 5 18 10 20 10 1 0 -19 -30 -45 -67z
m-247 -14 c0 -15 -7 -19 -38 -19 -41 0 -43 2 -29 29 14 25 67 17 67 -10z m98
-50 c-56 -63 -144 -99 -238 -99 l-58 0 33 35 c23 24 43 35 64 36 16 0 68 11
115 24 108 29 107 29 84 4z m-1727 -1051 c-21 -7 -32 -7 -40 1 -8 8 0 11 29
10 39 -1 39 -1 11 -11z m-37 -24 c0 -2 -9 -4 -21 -4 -11 0 -18 4 -14 10 5 8
35 3 35 -6z m-372 -19 c7 -7 -19 -115 -28 -115 -3 0 -13 30 -21 66 l-15 66 30
-6 c16 -4 32 -8 34 -11z m-172 -32 c-4 -4 -11 -1 -16 7 -16 25 -11 35 7 17 9
-9 13 -20 9 -24z m53 -12 c-2 -6 -10 2 -17 17 -11 25 -11 25 4 10 9 -9 15 -21
13 -27z m386 29 c-27 -12 -43 -12 -25 0 8 5 22 9 30 9 10 0 8 -3 -5 -9z m-194
-31 c-5 -13 -10 -19 -10 -12 -1 15 10 45 15 40 3 -2 0 -15 -5 -28z m139 11
c-8 -5 -22 -10 -30 -10 -13 0 -13 1 0 10 8 5 22 10 30 10 13 0 13 -1 0 -10z
m-364 -83 c1 -39 1 -40 -8 -14 -8 23 -6 57 4 57 2 0 4 -19 4 -43z m249 33 c-3
-5 -12 -10 -18 -10 -7 0 -6 4 3 10 19 12 23 12 15 0z m-44 -33 c-10 -9 -11 -8
-5 6 3 10 9 15 12 12 3 -3 0 -11 -7 -18z m-420 -28 c52 -12 95 -23 97 -24 1
-1 7 -26 11 -54 8 -50 7 -52 -13 -47 -11 3 -41 8 -66 12 -25 4 -62 15 -83 26
-40 20 -66 16 -47 -8 16 -19 105 -50 168 -59 56 -7 58 -11 46 -73 -5 -26 -9
-30 -28 -23 -11 5 -28 6 -36 3 -20 -6 -50 -38 -50 -53 0 -7 -8 -5 -20 6 -12
11 -25 15 -37 10 -69 -29 -263 50 -263 107 0 20 11 23 26 9 13 -13 129 -51
154 -51 14 0 20 5 18 16 -2 10 -32 27 -82 44 -95 34 -130 58 -134 94 l-3 26
38 -14 c52 -20 92 -28 103 -21 16 10 -1 33 -33 45 -76 28 -107 44 -107 53 0
17 237 1 341 -24z m405 -28 c-1 -17 -5 -26 -9 -21 -5 4 -6 17 -2 29 9 29 12
26 11 -8z m454 -131 c-19 -16 -49 -35 -67 -42 -33 -12 -48 -32 -37 -50 9 -14
53 -1 96 29 33 23 58 24 58 4 0 -17 -65 -83 -111 -111 -49 -30 -58 -43 -38
-55 18 -12 53 4 96 43 33 31 45 37 53 27 17 -21 -8 -62 -54 -89 -38 -22 -152
-56 -188 -56 -9 0 -28 7 -44 15 -25 13 -31 13 -50 0 -21 -14 -23 -13 -28 13
-14 69 -26 161 -26 203 l0 46 123 17 c67 10 142 21 167 26 84 15 89 13 50 -20z
m-721 -207 c10 -38 29 -100 40 -139 12 -39 21 -77 21 -85 0 -23 60 -173 76
-189 11 -12 21 -12 56 -3 48 13 60 8 52 -23 -5 -17 -16 -23 -52 -27 -49 -6
-82 11 -82 41 0 8 -8 29 -19 46 -18 30 -71 150 -146 329 -20 48 -34 95 -31
103 3 8 18 14 35 14 28 0 31 -4 50 -67z m-304 -91 c-3 -3 -11 0 -18 7 -9 10
-8 11 6 5 10 -3 15 -9 12 -12z m785 -42 c0 -10 -4 -21 -9 -25 -5 -3 -19 -31
-31 -63 -11 -31 -25 -66 -30 -77 -42 -90 -59 -139 -51 -149 6 -7 3 -19 -8 -32
-17 -21 -18 -21 -40 -3 -13 11 -30 19 -38 19 -10 0 -13 9 -11 28 3 25 6 27 41
24 31 -2 37 0 37 17 0 11 9 39 19 64 10 24 24 70 31 103 14 67 37 112 59 117
23 5 31 -1 31 -23z m-755 10 c3 -5 1 -10 -4 -10 -6 0 -11 5 -11 10 0 6 2 10 4
10 3 0 8 -4 11 -10z m-105 -16 c0 -8 -19 -13 -24 -6 -3 5 1 9 9 9 8 0 15 -2
15 -3z m101 -91 c13 -16 12 -17 -3 -4 -17 13 -22 21 -14 21 2 0 10 -8 17 -17z
m-454 -135 c-3 -7 -5 -2 -5 12 0 14 2 19 5 13 2 -7 2 -19 0 -25z m-50 0 c-3
-8 -6 -5 -6 6 -1 11 2 17 5 13 3 -3 4 -12 1 -19z m1255 -44 c-9 -16 -10 -14
-9 8 1 15 6 23 11 18 4 -4 4 -16 -2 -26z m-635 -26 c-3 -8 -6 -5 -6 6 -1 11 2
17 5 13 3 -3 4 -12 1 -19z m703 8 c0 -2 -8 -10 -17 -17 -16 -13 -17 -12 -4 4
13 16 21 21 21 13z m-726 -24 c3 -5 -1 -9 -9 -9 -8 0 -12 4 -9 9 3 4 7 8 9 8
2 0 6 -4 9 -8z m303 -22 c19 -23 20 -29 8 -34 -8 -3 -15 -15 -15 -26 0 -26
-19 -34 -54 -20 -31 11 -29 32 6 83 24 33 27 33 55 -3z m189 -31 c22 -21 38
-59 25 -59 -4 0 -16 7 -27 15 -28 21 -98 18 -145 -6 l-41 -20 7 23 c9 29 34
58 60 69 30 13 97 1 121 -22z m104 -50 c0 -11 -3 -19 -7 -19 -5 0 -18 -3 -29
-6 -32 -9 -40 52 -11 84 l21 22 13 -31 c7 -17 13 -40 13 -50z m-620 61 c0 -5
-5 -10 -11 -10 -5 0 -7 5 -4 10 3 6 8 10 11 10 2 0 4 -4 4 -10z m53 -15 c-3
-9 -8 -14 -10 -11 -3 3 -2 9 2 15 9 16 15 13 8 -4z m-99 -11 c3 -8 2 -12 -4
-9 -6 3 -10 10 -10 16 0 14 7 11 14 -7z m731 -19 c0 -14 -3 -25 -7 -25 -10 0
-10 34 -1 43 3 4 7 7 7 7 1 0 1 -11 1 -25z m-655 11 c0 -2 -8 -10 -17 -17 -16
-13 -17 -12 -4 4 13 16 21 21 21 13z m-763 -28 c-3 -8 -6 -5 -6 6 -1 11 2 17
5 13 3 -3 4 -12 1 -19z m657 -1 c-2 -11 -9 -25 -15 -31 -9 -8 -9 -6 -1 10 7
14 8 24 1 31 -6 6 -5 10 5 10 9 0 13 -8 10 -20z m-33 -4 c13 -16 12 -17 -3 -4
-10 7 -18 15 -18 17 0 8 8 3 21 -13z m572 1 c4 -1 12 -2 17 -3 14 -1 13 -34
-2 -49 -7 -7 -25 -12 -42 -12 l-29 0 23 25 c13 14 20 28 16 32 -4 4 -16 -3
-26 -17 -19 -25 -20 -25 -20 -3 0 24 28 46 45 35 5 -4 13 -7 18 -8z m-162 -20
c4 -2 9 -15 11 -28 4 -18 -1 -27 -19 -35 -32 -14 -29 -15 -42 20 -18 51 -15
60 17 53 15 -4 30 -8 33 -10z m84 -9 c0 -19 -4 -23 -17 -19 -28 9 -21 -4 12
-21 34 -18 93 -20 122 -4 25 14 31 7 15 -16 -21 -28 -104 -31 -145 -6 -25 17
-32 27 -29 47 3 22 21 43 37 44 3 0 5 -11 5 -25z m155 0 c0 -2 -9 -9 -20 -15
-18 -9 -20 -8 -20 15 0 23 2 24 20 15 11 -6 20 -13 20 -15z m-565 5 c-3 -5 -1
-10 6 -10 7 0 10 -3 6 -6 -9 -9 -28 6 -22 17 4 5 8 9 11 9 3 0 2 -4 -1 -10z
m-698 -52 c-2 -13 -4 -5 -4 17 -1 22 1 32 4 23 2 -10 2 -28 0 -40z m1400 30
c-3 -8 -6 -5 -6 6 -1 11 2 17 5 13 3 -3 4 -12 1 -19z m-834 -19 c-8 -8 -13 -7
-18 2 -6 8 -4 10 5 4 10 -6 12 -4 6 11 -6 15 -5 17 5 7 9 -10 10 -16 2 -24z
m17 -12 c-24 -22 -24 -22 -6 0 10 12 15 27 11 35 -7 10 -5 11 6 0 11 -10 9
-16 -11 -35z m760 33 c0 -6 -9 -29 -21 -52 -21 -40 -21 -41 -40 -21 -16 16
-18 24 -10 45 6 15 20 28 33 31 13 2 26 5 31 6 4 0 7 -4 7 -9z m-1423 -42 c-3
-7 -5 -2 -5 12 0 14 2 19 5 13 2 -7 2 -19 0 -25z m743 19 c0 -2 -12 -14 -27
-28 l-26 -24 19 27 c16 23 34 36 34 25z m405 -47 c17 -19 17 -22 3 -36 -14
-14 -18 -13 -44 10 -24 22 -27 27 -14 36 22 15 35 12 55 -10z m212 -35 c-4
-14 -68 -45 -79 -39 -17 11 -7 40 20 55 20 11 31 13 45 5 9 -6 16 -15 14 -21z
m-757 21 c0 -2 -8 -10 -17 -17 -16 -13 -17 -12 -4 4 13 16 21 21 21 13z m890
-6 c0 -5 -5 -10 -11 -10 -5 0 -7 5 -4 10 3 6 8 10 11 10 2 0 4 -4 4 -10z
m-237 -37 c5 -25 4 -25 -41 -19 -53 7 -56 9 -48 33 5 15 14 18 45 15 32 -3 40
-8 44 -29z m484 21 c-3 -3 -12 -4 -19 -1 -8 3 -5 6 6 6 11 1 17 -2 13 -5z m60
-30 c-3 -3 -12 -4 -19 -1 -8 3 -5 6 6 6 11 1 17 -2 13 -5z m-1770 -66 c-3 -7
-5 -2 -5 12 0 14 2 19 5 13 2 -7 2 -19 0 -25z m60 0 c-3 -7 -5 -2 -5 12 0 14
2 19 5 13 2 -7 2 -19 0 -25z m423 28 c0 -2 -8 -10 -17 -17 -16 -13 -17 -12 -4
4 13 16 21 21 21 13z m-524 -21 c17 -13 16 -14 -13 -4 -34 11 -42 19 -20 19 7
0 22 -7 33 -15z m842 7 c13 11 14 11 10 -2 -2 -8 -16 -15 -31 -15 -21 -1 -24
2 -14 13 8 10 12 11 15 3 3 -9 8 -8 20 1z m670 1 c-10 -2 -26 -2 -35 0 -10 3
-2 5 17 5 19 0 27 -2 18 -5z m-748 -19 c0 -2 -9 -4 -21 -4 -11 0 -18 4 -14 10
5 8 35 3 35 -6z m687 10 c-3 -3 -12 -4 -19 -1 -8 3 -5 6 6 6 11 1 17 -2 13 -5z
m-784 -11 c-7 -2 -19 -2 -25 0 -7 3 -2 5 12 5 14 0 19 -2 13 -5z m1274 1 c-3
-3 -12 -4 -19 -1 -8 3 -5 6 6 6 11 1 17 -2 13 -5z m-209 -31 c-10 -2 -28 -2
-40 0 -13 2 -5 4 17 4 22 1 32 -1 23 -4z m-200 -10 c-10 -2 -26 -2 -35 0 -10
3 -2 5 17 5 19 0 27 -2 18 -5z m-520 -28 c-2 -3 -42 -6 -89 -8 -47 -3 -75 -1
-64 4 22 8 162 12 153 4z m500 -2 c-16 -2 -40 -2 -55 0 -16 2 -3 4 27 4 30 0
43 -2 28 -4z m-1471 -9 c-3 -3 -12 -4 -19 -1 -8 3 -5 6 6 6 11 1 17 -2 13 -5z
m586 -1 c-29 -2 -77 -2 -105 0 -29 2 -6 3 52 3 58 0 81 -1 53 -3z m734 1 c-3
-3 -12 -4 -19 -1 -8 3 -5 6 6 6 11 1 17 -2 13 -5z m388 -3 c3 -5 1 -12 -5 -16
-5 -3 -10 1 -10 9 0 18 6 21 15 7z m-1652 -8 c-7 -2 -19 -2 -25 0 -7 3 -2 5
12 5 14 0 19 -2 13 -5z m332 -3 c-22 -4 -43 -5 -48 -1 -4 4 14 8 40 8 l48 1
-40 -8z m1062 -26 c-3 -3 -12 -4 -19 -1 -8 3 -5 6 6 6 11 1 17 -2 13 -5z
m-1520 -26 c-3 -8 -6 -5 -6 6 -1 11 2 17 5 13 3 -3 4 -12 1 -19z m679 11 c-25
-6 -49 -6 -65 0 -21 8 -13 9 39 9 62 0 63 0 26 -9z m592 4 c-10 -2 -26 -2 -35
0 -10 3 -2 5 17 5 19 0 27 -2 18 -5z"/>
<path d="M2684 3148 c-59 -62 -77 -94 -70 -123 7 -27 41 -41 74 -31 26 9 112
119 112 144 0 27 -26 52 -53 52 -13 0 -39 -18 -63 -42z"/>
<path d="M3045 3170 c-12 -19 -48 -28 -73 -19 -21 8 -23 6 -20 -13 3 -24 32
-34 72 -24 26 7 51 45 38 58 -6 6 -12 6 -17 -2z"/>
<path d="M3097 3148 c-51 -68 -61 -113 -31 -142 26 -27 34 -18 27 29 -5 39 -2
51 22 85 20 29 25 44 18 51 -8 8 -18 1 -36 -23z"/>
<path d="M3190 3108 c-30 -32 -50 -84 -50 -127 0 -31 7 -42 43 -72 49 -41 179
-122 307 -191 30 -17 69 -41 87 -54 37 -28 56 -30 77 -8 22 21 20 55 -6 136
-21 65 -25 69 -72 93 -27 14 -58 25 -68 25 -25 0 -219 79 -241 99 -15 12 -18
25 -14 54 4 25 0 42 -10 52 -20 20 -29 19 -53 -7z"/>
<path d="M3100 2823 c-23 -8 -80 -65 -96 -96 -12 -21 -12 -32 -3 -50 27 -51
76 -51 115 0 16 21 36 45 46 55 19 19 23 45 10 64 -7 10 -47 35 -54 33 -2 0
-10 -3 -18 -6z"/>
<path d="M3681 2057 c-30 -7 -61 -27 -102 -65 -61 -56 -72 -84 -41 -101 20
-10 54 6 79 37 11 13 13 13 19 -1 8 -21 37 -22 53 -3 8 9 8 21 2 39 -12 31 -7
35 51 45 54 9 63 35 17 51 -18 6 -32 10 -33 10 -1 -1 -21 -6 -45 -12z"/>
<path d="M2478 2710 c-33 -25 -43 -53 -28 -80 13 -24 37 -26 60 -5 17 16 31 6
143 -96 39 -35 40 -36 26 -73 -12 -32 -11 -38 1 -46 8 -6 21 -10 27 -10 20 0
63 76 63 111 0 28 -3 31 -25 27 -14 -3 -28 -1 -31 4 -3 5 -40 37 -83 70 -51
41 -78 69 -81 87 -7 34 -38 38 -72 11z"/>
<path d="M1850 1122 c0 -22 30 -34 71 -27 22 4 37 11 32 15 -13 13 -103 24
-103 12z"/>
<path d="M2570 1086 c-46 -8 -65 -15 -65 -26 0 -30 132 -5 143 28 2 6 0 12 -5
11 -4 -1 -37 -6 -73 -13z"/>
<path d="M2667 1024 c-3 -4 -41 -16 -83 -28 -93 -26 -114 -51 -36 -44 51 5
143 46 150 67 4 11 -20 16 -31 5z"/>
<path d="M2570 923 c0 -14 44 -28 59 -19 6 4 8 12 5 19 -6 17 -64 16 -64 0z"/>
</g>
</svg>
